<svg id="visual" viewBox="0 0 900 600" width="900" height="600" xmlns="http://www.w3.org/2000/svg" xmlns:xlink="http://www.w3.org/1999/xlink" version="1.1"><rect x="0" y="0" width="900" height="600" fill="#001220"></rect><defs><linearGradient id="grad1_0" x1="33.3%" y1="0%" x2="100%" y2="100%"><stop offset="20%" stop-color="#001220" stop-opacity="1"></stop><stop offset="80%" stop-color="#001220" stop-opacity="1"></stop></linearGradient></defs><defs><linearGradient id="grad2_0" x1="0%" y1="0%" x2="66.7%" y2="100%"><stop offset="20%" stop-color="#001220" stop-opacity="1"></stop><stop offset="80%" stop-color="#001220" stop-opacity="1"></stop></linearGradient></defs><g transform="translate(900, 0)"><path d="M0 378.6C-40.8 351.8 -81.6 325 -128.6 310.4C-175.6 295.9 -228.8 293.6 -267.7 267.7C-306.6 241.8 -331.3 192.4 -347.4 143.9C-363.5 95.3 -371 47.7 -378.6 0L0 0Z" fill="#FBAE3C"></path></g><g transform="translate(0, 600)"><path d="M0 -378.6C51.7 -375.1 103.5 -371.6 144.9 -349.8C186.3 -327.9 217.3 -287.6 251.7 -251.7C286.1 -215.8 323.8 -184.3 345.5 -143.1C367.2 -101.9 372.9 -51 378.6 0L0 0Z" fill="#FBAE3C"></path></g></svg>